HIERARCHY
ROOT joint_Root
{
  OFFSET 0 0 0
  CHANNELS 6 Xposition Yposition Zposition Zrotation Xrotation Yrotation
  JOINT Hips
  {
    OFFSET 0 93.9241 -3
    CHANNELS 6 Xposition Yposition Zposition Zrotation Xrotation Yrotation
    JOINT Spine
    {
      OFFSET 15.7357 0 0
      CHANNELS 6 Xposition Yposition Zposition Zrotation Xrotation Yrotation
      JOINT Chest
      {
        OFFSET 8.98455 -0.406207 0
        CHANNELS 6 Xposition Yposition Zposition Zrotation Xrotation Yrotation
        JOINT Neck
        {
          OFFSET 16.3773 0 0
          CHANNELS 6 Xposition Yposition Zposition Zrotation Xrotation Yrotation
          JOINT Head
          {
            OFFSET 6.45672 0 0
            CHANNELS 6 Xposition Yposition Zposition Zrotation Xrotation Yrotation
            End Site
            {
              OFFSET 0 0 0
            }
          }
        }
        JOINT Shoulder_L
        {
          OFFSET 12.9942 -0.242716 4.98039
          CHANNELS 6 Xposition Yposition Zposition Zrotation Xrotation Yrotation
          JOINT UpperArm_L
          {
            OFFSET 5.34809 0 0
            CHANNELS 6 Xposition Yposition Zposition Zrotation Xrotation Yrotation
            JOINT LowerArm_L
            {
              OFFSET 24.3286 1.87007e-05 0
              CHANNELS 6 Xposition Yposition Zposition Zrotation Xrotation Yrotation
              JOINT Hand_L
              {
                OFFSET 22.2916 0 0
                CHANNELS 6 Xposition Yposition Zposition Zrotation Xrotation Yrotation
                End Site
                {
                  OFFSET 0 0 0
                }
              }
            }
          }
        }
        JOINT Shoulder_R
        {
          OFFSET 12.9945 -0.242716 -4.98039
          CHANNELS 6 Xposition Yposition Zposition Zrotation Xrotation Yrotation
          JOINT UpperArm_R
          {
            OFFSET -5.34813 0 0
            CHANNELS 6 Xposition Yposition Zposition Zrotation Xrotation Yrotation
            JOINT LowerArm_R
            {
              OFFSET -24.3289 0.000322201 0
              CHANNELS 6 Xposition Yposition Zposition Zrotation Xrotation Yrotation
              JOINT Hand_R
              {
                OFFSET -22.2915 -0.000108084 0
                CHANNELS 6 Xposition Yposition Zposition Zrotation Xrotation Yrotation
                End Site
                {
                  OFFSET 0 0 0
                }
              }
            }
          }
        }
      }
    }
    JOINT UpperLeg_L
    {
      OFFSET -2.19248 -6.46944 0
      CHANNELS 6 Xposition Yposition Zposition Zrotation Xrotation Yrotation
      JOINT LowerLeg_L
      {
        OFFSET 39.0811 0 -1.23785e-05
        CHANNELS 6 Xposition Yposition Zposition Zrotation Xrotation Yrotation
        JOINT Foot_L
        {
          OFFSET 40.9854 0 -1.26872e-05
          CHANNELS 6 Xposition Yposition Zposition Zrotation Xrotation Yrotation
          JOINT Toes_L
          {
            OFFSET 11.7543 0 0
            CHANNELS 6 Xposition Yposition Zposition Zrotation Xrotation Yrotation
            End Site
            {
              OFFSET 0 0 0
            }
          }
        }
      }
    }
    JOINT UpperLeg_R
    {
      OFFSET -2.19251 6.46944 0
      CHANNELS 6 Xposition Yposition Zposition Zrotation Xrotation Yrotation
      JOINT LowerLeg_R
      {
        OFFSET -39.0811 -0.00228153 -0.0401928
        CHANNELS 6 Xposition Yposition Zposition Zrotation Xrotation Yrotation
        JOINT Foot_R
        {
          OFFSET -40.9854 0 0
          CHANNELS 6 Xposition Yposition Zposition Zrotation Xrotation Yrotation
          JOINT Toes_R
          {
            OFFSET -11.7543 0 0
            CHANNELS 6 Xposition Yposition Zposition Zrotation Xrotation Yrotation
            End Site
            {
              OFFSET 0 0 0
            }
          }
        }
      }
    }
  }
}
MOTION
Frames:	4
Frame Time:	0.0333333
0 0 0 0 0 -0 2.10491 89.3649 101.366 87.0479 -5.30804 3.36163 15.7357 5.1072e-06 -5.51765e-07 88.0741 79.8376 -86.1281 8.98455 -0.406207 -4.3199e-07 12.5609 -0.595313 3.95705 16.3773 -1.3905e-06 -6.99897e-07 13.9977 -1.88462 1.65023 6.45672 -1.25837e-06 -1.02172e-07 20.2769 -2.92993 1.62005 12.9942 -0.242716 4.98039 -90.0549 0.52833 -99.0641 5.34809 -7.22636e-06 -6.2814e-07 -72.8208 12.2604 -14.7188 24.3286 1.87007e-05 4.90208e-06 2.02331 8.5227 -13.4076 22.2916 -9.88446e-07 4.63217e-06 6.4429 5.15807 3.75023 12.9945 -0.242716 -4.98039 89.2316 6.33162 -98.0662 -5.34813 -1.25947e-06 -3.79883e-06 -66.3466 4.38758 3.06403 -24.3289 0.000322201 -8.65921e-06 3.16555 11.4592 -15.5612 -22.2915 -0.000108084 -4.47941e-06 12.6621 5.4129 -3.36137 -2.19248 -6.46944 -1.22534e-07 179.137 1.69372 -5.09481 39.0811 -6.73843e-06 -1.23785e-05 0.0608649 -0.03967 35.4405 40.9854 -6.48686e-06 -1.26872e-05 0.797092 -8.36982 -77.1214 11.7543 -2.30145e-07 3.05095e-06 0.0833876 -0.0939493 -17.4929 -2.19251 6.46944 -1.45247e-06 -171.795 0.538516 159.821 -39.0811 -0.00228153 -0.0401928 -0.0196498 0.133792 12.269 -40.9854 7.72618e-06 5.99936e-06 7.34516 -6.0637 -42.0572 -11.7543 -5.6619e-06 -5.58687e-06 0.326157 -0.353614 -19.2517 
0 0 0 0 0 -0 2.71003 89.772 98.8184 89.3633 -3.76818 3.11106 15.7357 5.1072e-06 -5.51765e-07 85.5095 79.9029 -84.607 8.98455 -0.406207 -4.3199e-07 12.3821 -1.5302 1.97078 16.3773 -1.3905e-06 -6.99897e-07 14.3054 -2.53868 1.79003 6.45672 -1.25837e-06 -1.02172e-07 22.5747 -3.2111 3.48912 12.9942 -0.242716 4.98039 -89.9771 -0.238847 -99.5186 5.34809 -7.22636e-06 -6.2814e-07 -71.5159 12.9876 -16.3523 24.3286 1.87007e-05 4.90208e-06 2.43698 8.78748 -15.5666 22.2916 -9.88446e-07 4.63217e-06 7.8173 5.17111 3.434 12.9945 -0.242716 -4.98039 89.1467 6.67924 -97.7027 -5.34813 -1.25947e-06 -3.79883e-06 -67.4391 4.89549 2.2194 -24.3289 0.000322201 -8.65921e-06 3.49087 12.5866 -15.6431 -22.2915 -0.000108084 -4.47941e-06 14.2984 5.40965 -3.25512 -2.19248 -6.46944 -1.22533e-07 176.837 1.7523 -7.03218 39.0811 -6.73843e-06 -1.23785e-05 0.0574035 -0.0430834 34.181 40.9854 -6.48686e-06 -1.26872e-05 1.76893 -7.06746 -74.3151 11.7543 -2.30145e-07 3.05095e-06 0.0403552 -0.0450953 -17.0185 -2.19251 6.46944 -1.45247e-06 -174.939 0.495708 159.921 -39.0811 -0.00228153 -0.0401928 -0.0102286 0.102579 9.47614 -40.9854 7.72618e-06 5.99936e-06 6.942 -7.65896 -45.8245 -11.7543 -5.6619e-06 -5.58687e-06 0.334508 -0.36314 -19.3222 
0 0 0 0 0 -0 3.0664 90.0529 96.7876 90.4972 -2.63509 3.87727 15.7357 5.1072e-06 -5.51765e-07 85.0318 79.8084 -84.7341 8.98455 -0.406207 -4.3199e-07 12.5493 -1.73614 0.786406 16.3773 -1.3905e-06 -6.99897e-07 15.5393 -2.9439 2.15027 6.45672 -1.25837e-06 -1.02172e-07 23.4155 -3.96519 4.09813 12.9942 -0.242716 4.98039 -89.8106 -1.91231 -99.3456 5.34809 -7.22636e-06 -6.2814e-07 -71.2602 14.1578 -17.9744 24.3286 1.87007e-05 4.90208e-06 3.14698 9.61424 -18.2202 22.2916 -9.88446e-07 4.63217e-06 7.83309 5.17317 3.38323 12.9945 -0.242716 -4.98039 89.3921 4.72434 -97.6597 -5.34813 -1.25947e-06 -3.79883e-06 -70.8278 4.15365 2.29676 -24.3289 0.000322201 -8.65921e-06 4.26185 14.247 -16.8501 -22.2915 -0.000108084 -4.47941e-06 14.0877 5.39285 -2.7038 -2.19248 -6.46944 -1.22534e-07 175.985 -0.354471 -7.44896 39.0811 -6.73843e-06 -1.23785e-05 0.0686017 -0.0604149 33.288 40.9854 -6.48686e-06 -1.26872e-05 2.99972 -4.09226 -72.3634 11.7543 -2.30145e-07 3.05095e-06 0.0413449 -0.0462108 -17.0294 -2.19251 6.46944 -1.45247e-06 -176.252 2.32479 162 -39.0811 -0.00228153 -0.0401928 -0.00492951 0.0929247 5.9277 -40.9854 7.72618e-06 5.99936e-06 6.49318 -7.8097 -49.9966 -11.7543 -5.6619e-06 -5.58687e-06 0.315542 -0.341569 -19.1624 
0 0 0 0 0 -0 3.44021 90.265 95.0733 90.9966 -2.37849 4.59147 15.7357 5.1072e-06 -5.51765e-07 86.4884 79.84 -86.5222 8.98455 -0.406207 -4.3199e-07 12.5176 -1.2343 0.0678282 16.3773 -1.3905e-06 -6.99897e-07 16.2684 -3.15695 1.95342 6.45672 -1.25837e-06 -1.02172e-07 24.3401 -4.73052 4.63326 12.9942 -0.242716 4.98039 -89.7469 -2.22883 -98.5185 5.34809 -7.22636e-06 -6.2814e-07 -70.4662 15.1521 -19.174 24.3286 1.87007e-05 4.90208e-06 3.67292 9.58719 -21.077 22.2916 -9.88446e-07 4.63217e-06 7.74061 5.17024 3.45484 12.9945 -0.242716 -4.98039 89.5403 3.71571 -97.9422 -5.34813 -1.25947e-06 -3.79883e-06 -72.515 4.48319 3.28223 -24.3289 0.000322201 -8.65921e-06 4.43713 13.4725 -18.4256 -22.2915 -0.000108084 -4.47941e-06 11.923 5.38808 -2.55652 -2.19248 -6.46944 -1.22534e-07 175.382 -0.997512 -7.70642 39.0811 -6.73843e-06 -1.23785e-05 0.0637058 -0.0527204 32.6146 40.9854 -6.48686e-06 -1.26872e-05 3.54509 -3.29348 -70.7657 11.7543 -2.30145e-07 3.05095e-06 0.0303766 -0.0338864 -16.9092 -2.19251 6.46944 -1.45247e-06 -177.77 1.84293 163.831 -39.0811 -0.00228153 -0.0401928 0.0021898 0.0238656 3.32447 -40.9854 7.72618e-06 5.99936e-06 2.63211 -9.88795 -51.934 -11.7543 -5.6619e-06 -5.58687e-06 0.305338 -0.330027 -19.0767 
